<svg xmlns="http://www.w3.org/2000/svg" viewBox="0 0 160 160" fill="none">
  <rect width="160" height="160" rx="36" fill="#1b1e33" />
  <path d="M80 52c-15.464 0-28 12.536-28 28a28 28 0 0 0 28 28h26c13.807 0 25-11.193 25-25s-11.193-25-25-25h-9.2A27.96 27.96 0 0 0 80 52Zm0 18a10 10 0 1 1 0 20 10 10 0 0 1 0-20Zm32 0a14 14 0 0 1 0 28h-9c5.514-5.06 9-12.377 9-20.5 0-2.564-.313-5.065-.9-7.5H112Z" fill="#ff4f5a" />
  <path d="M80 60c-10.493 0-19 8.507-19 19s8.507 19 19 19h9c-5.514-5.06-9-12.377-9-20.5 0-2.564.313-5.065.9-7.5H80Z" fill="#ffa36c" />
</svg>
